<svg version="1.2" xmlns="http://www.w3.org/2000/svg" viewBox="0 0 814 792" width="814" height="792">
	<title>tree-svg</title>
	<style>
		.s0 { fill: #ffffff } 
		.s1 { fill: #3f3d56 } 
		.s2 { fill: #e5e5e5 } 
		.s3 { opacity: .2;fill: #000000 } 
		.s4 { fill: #cbcbcb } 
		.s5 { fill: #f1f1f1 } 
		.s6 { fill: #ffb7b7 } 
		.s7 { fill: #2f2e41 } 
	</style>
	<path id="Layer 1" fill-rule="evenodd" class="s0" d="m-13-11h839v817h-839zm472.3 200.5c0-104.8-84.7-189.5-189.5-189.5-104.9 0-189.6 84.7-189.6 189.5 0 104.9 84.7 189.6 189.6 189.6 104.8 0 189.5-84.7 189.5-189.6zm265.7 491.6c0-3.5-2.8-6.4-6.3-6.4-3.6 0-6.4 2.9-6.4 6.4 0 3.5 2.8 6.4 6.4 6.4 3.5 0 6.3-2.9 6.3-6.4zm-318.9-166.4c0.3 6.7 0.8 19.9 0.8 20.6 0 0.7 10 21.5 14.3 30.4q0.5 1 0.8 1.7 0.3 0.5 0.7 1 0.4 0.4 0.9 0.7 0.5 0.3 1 0.5 0.6 0.1 1.2 0.1l18.9-0.3q0.8-0.1 1.5-0.4 0.7-0.3 1.3-0.8 0.5-0.6 0.8-1.3 0.3-0.7 0.4-1.5l0.1-6 0.2 0.3q1.7-1 3.4-2.2l2.3 37.8 19.1-0.7-0.6-64.6q1.3-3.2 2.1-6.6 1.2-4.7 1.6-9.5c0.9-11.1-1.3-19.3-6.5-24.5-6.8-6.5-15.9-5.6-16.3-5.5h-0.4l-3 2.5 0.1-4.3q0-0.4-0.2-0.8-0.1-0.4-0.4-0.7-0.3-0.3-0.7-0.4-0.4-0.2-0.8-0.2h-24.4q-0.8 0-1.5 0.2-0.8 0.2-1.4 0.6-0.7 0.5-1.2 1-0.5 0.6-0.9 1.3l-11.7 24.2q-0.4 0.9-0.7 1.8-0.3 0.9-0.5 1.8-0.2 0.9-0.3 1.9 0 0.9 0 1.9zm43.8 2.4l2.3 37.1q-0.6 0.5-1.2 0.9-1 0.7-2.1 1.5zm23.1-14.7q0-1.9-0.6-3.8-0.6-1.9-1.7-3.5-1.1-1.6-2.7-2.7-1.6-1.2-3.4-1.8-0.9-0.3-1.8-0.5-0.9-0.1-1.8-0.1-0.9 0-1.8 0.1-0.9 0.2-1.7 0.5-2 0.6-3.7 1.9-1.6 1.3-2.7 3-0.4 0.5-0.7 1.1l0.2-6.5 4.2-3.6c1.7-0.1 8.6-0.1 13.7 4.9 4.6 4.5 6.6 12 5.7 22.2q-0.3 3.5-1 7z"/>
	<path id="Layer" class="s1" d="m722.3 699.9c0 0 0.6-13 13.3-11.5"/>
	<path id="Layer" class="s1" d="m717.6 691.9h1.8v12.6h-1.8z"/>
	<path id="Layer" fill-rule="evenodd" class="s2" d="m274.1 381.3q-0.8 1.7-1.7 3.4-0.9 1.7-1.9 3.4-1 1.7-2 3.4-1 1.6-2 3.3c-6.4 9.9-13.9 19.1-22.5 27.2-8.6 8.1-18.1 15.2-28.4 21-10.3 5.8-21.3 10.3-32.7 13.4-11.4 3.1-23.2 4.8-35 5.1l1.5 82.2 18.6-9.8 3.3 6.3-21.8 11.5 2.7 152.8v2l-14.4 3.2v-2l4.5-246.2c-9.5-0.1-19-1.2-28.3-3.2-9.3-2-18.4-5-27.1-8.8-8.7-3.8-17.1-8.4-24.9-13.9-7.8-5.4-15.1-11.6-21.7-18.5q-1.3-1.4-2.6-2.9-0.1 0-0.1-0.1-4.2-4.5-7.9-9.3-3.7-4.8-7-9.9-3.3-5.2-6.2-10.5-2.9-5.4-5.3-11 0.2 0.2 0.4 0.4c-7.1-16.8-11.1-34.8-11.6-53.1-0.4-18.3 2.6-36.5 8.9-53.7 6.3-17.1 15.8-33 28-46.6 12.3-13.6 26.9-24.8 43.3-32.9q0 1 0 2c0 104.9 84.7 189.6 189.6 189.6q2.7 0 5.4-0.1-0.5 1.1-1.1 2.3z"/>
	<path id="Layer" class="s3" d="m129.8 62.9c-41.1 96.3 3.5 207.7 99.8 248.8 18.1 7.8 37.4 12.7 57 14.5 19.7 1.8 39.5 0.6 58.8-3.7 19.2-4.3 37.7-11.6 54.7-21.6 17.1-10 32.4-22.6 45.5-37.4-41.1 96.3-152.5 141-248.8 99.8-96.2-41.1-140.9-152.5-99.8-248.8q3-7 6.6-13.8 3.6-6.8 7.7-13.3 4.1-6.5 8.8-12.6 4.6-6.1 9.7-11.9z"/>
	<path id="Layer" class="s1" d="m280 717.6l-19.4-5.5 0.1-2.1 5.8-315.2 0.3-15.8v-0.4l1-55.1 1.5-79.8 1-54.2h0.5l1 58.7 1.3 76.3 1 54.1v0.4 2.3l1.9 105.5 0.2 10.5 3.8 218.2v2.1z"/>
	<path id="Layer" class="s1" d="m269.1 490.4l31.3-16.4 4.4 8.2-31.3 16.5z"/>
	<path id="Layer" class="s4" d="m176.7 755.7h89.3v2h-89.3z"/>
	<path id="Layer" class="s4" d="m340.7 789.7h89.3v2h-89.3z"/>
	<path id="Layer" class="s4" d="m595.7 763.7h89.3v2h-89.3z"/>
	<path id="Layer" class="s5" d="m644.2 682.3v-58.1c0 0 22.7 41.2 0 58.1z"/>
	<path id="Layer" class="s5" d="m645.6 682.3l-42.8-39.3c0 0 45.7 11.2 42.8 39.3z"/>
	<path id="Layer" class="s5" d="m201.2 696.3v-58.1c0 0 22.7 41.2 0 58.1z"/>
	<path id="Layer" class="s5" d="m202.6 696.3l-42.8-39.3c0 0 45.7 11.2 42.8 39.3z"/>
	<path id="Layer" class="s5" d="m355.2 738.3v-72.3c0 0 28.2 51.3 0 72.3z"/>
	<path id="Layer" class="s5" d="m357 738.3l-53.3-48.9c0 0 56.8 13.9 53.3 48.9z"/>
	<path id="Layer" class="s4" d="m813.3 729.5l-0.5 1.9-167.9-47.8-126.4 27.9-161.7 27.6-0.2-0.1-76.6-21.4-19.3-5.5-59.2-16.6-49.3 11-14.4 3.2-31.4 7-0.4-1.9 31.8-7.1 14.4-3.2 49.4-11h0.2l58.9 16.5 19.3 5.5 76.9 21.6 161.2-27.6 126.9-27.9h0.2l168.1 47.9z"/>
	<path id="Layer" class="s1" d="m515.1 123.2q1 1 1.8 2.1 0.8 1.1 1.5 2.3 0.7 1.2 1.1 2.5l-25.6-9.3c0 0 8.5-4.2 16.3-1 1.6-4.3 5.7-9.7 15.6-8.6l-12.7 10.2q1 0.9 2 1.8z"/>
	<path id="Layer" class="s1" d="m45.1 119.2q1 1 1.8 2.1 0.8 1.1 1.5 2.3 0.7 1.2 1.1 2.5l-25.6-9.3c0 0 8.5-4.2 16.3-1 1.6-4.3 5.7-9.7 15.6-8.6l-12.7 10.2q1 0.9 2 1.8z"/>
	<path id="Layer" class="s1" d="m487.1 314.2q1 1 1.8 2.1 0.8 1.1 1.5 2.3 0.7 1.2 1.1 2.5l-25.6-9.3c0 0 8.5-4.2 16.3-1 1.6-4.3 5.7-9.7 15.6-8.6l-12.7 10.2q1 0.9 2 1.8z"/>
	<path id="Layer" class="s6" d="m398.2 752.6l14-37.7 14.4 5.3-18.7 36-9.7-3.6z"/>
	<path id="Layer" class="s7" d="m396.8 748.5l19.3 7.1c1.6 0.6 3.1 1.5 4.4 2.7 1.2 1.2 2.2 2.6 2.9 4.1 0.8 1.6 1.2 3.3 1.2 5 0.1 1.7-0.2 3.4-0.8 5l-0.1 0.4-31.6-11.7z"/>
	<path id="Layer" class="s6" d="m494.4 762.7v-40.2h15.4l-5 40.2h-10.4z"/>
	<path id="Layer" class="s7" d="m492.6 759.3h20.5c1.7 0 3.4 0.4 5 1 1.6 0.7 3.1 1.6 4.3 2.9 1.2 1.2 2.2 2.6 2.8 4.2 0.7 1.6 1 3.3 1 5v0.4h-33.6z"/>
	<path id="Woman body" fill-rule="evenodd" class="s7" d="m450 476.9l29 14.4-0.9 6 5.5 7.2c0 0 9.4 5.1 7.7 22.1l-1.7 16.2-2.1 20.9 14.9 51.4 7.6 68.1 5.6 54.9-26.8-1.3-24.7-89.3-43.4 96.1-29.8-7.6 40.8-95.3 5.1-40c0 0-2.7-17.4 8.7-31.4q0.3-0.1 0.7-0.3 0.7-0.3 1.3-0.8 0.5-0.6 0.8-1.3 0.3-0.5 0.3-1.1 0.5-0.4 1-0.9l-0.9-2.6 0.1-2.9 0.2 0.3q1.8-1.1 3.5-2.3 1.8-1.3 3.4-2.6 1.6-1.4 3.1-2.9 1.5-1.5 2.9-3.1 3.2-3.6 5.8-7.7 2.6-4.1 4.5-8.6 1.9-4.4 3.1-9.1 1.2-4.7 1.6-9.5c0.9-11.1-1.3-19.3-6.5-24.5-6.8-6.5-15.9-5.6-16.3-5.5h-0.4l-3 2.5 0.1-4.3q0-0.4-0.2-0.8-0.1-0.4-0.4-0.7-0.3-0.3-0.7-0.4-0.4-0.2-0.8-0.2h-0.2zm4.7 9.7c1.7-0.1 8.6-0.1 13.7 4.8 4.7 4.6 6.6 12.1 5.7 22.3q-0.4 4.6-1.5 9.1-1.1 4.4-2.9 8.7-1.8 4.2-4.3 8.1-2.5 3.9-5.5 7.3-1.3 1.6-2.8 3-1.4 1.4-3 2.7-1.5 1.3-3.1 2.5-1.1 0.8-2.2 1.5l1.7-66.5z"/>
	<path id="Layer" class="s3" d="m444.9 581.2l0.9-0.2 18.8 66.3-1 0.3z"/>
	<path id="Layer" class="s1" d="m489.2 567.9h-41.7v-4.2h41.7z"/>
	<path id="Layer" class="s1" d="m489.2 570.5c-1 0-1.7-1.9-1.7-4.3 0-2.3 0.7-4.3 1.7-4.3 0.9 0 1.7 2 1.7 4.3 0 2.4-0.8 4.3-1.7 4.3z"/>
	<path id="Layer" class="s6" d="m490.3 463.6c-6 11-19.8 15.1-30.8 9.1-11-6.1-15-19.8-9-30.8 6-11 19.7-15.1 30.8-9 11 6 15 19.7 9 30.7z"/>
	<path id="Layer" class="s7" d="m435.7 444.7c-11.1 0-20.1-9-20.1-20.1 0-11.1 9-20.1 20.1-20.1 11.1 0 20 9 20 20.1 0 11.1-8.9 20.1-20 20.1z"/>
	<path id="Layer" class="s7" d="m413.8 436.6c2.9 4.1 7.3 6.9 12.2 8 4.9 1 10.1 0.2 14.4-2.4 4.3-2.6 7.5-6.7 8.9-11.5-0.7 5.5-3.7 10.6-8.2 13.8-4.6 3.3-10.3 4.5-15.8 3.3-5.5-1.1-10.2-4.5-13.1-9.4-2.9-4.8-3.6-10.6-2-16-0.6 5 0.6 10.1 3.6 14.2z"/>
	<path id="Layer" class="s7" d="m489.5 446.5c1.2 10.6-4.9 20.8-14.9 24.7-10 3.9-21.4 0.7-27.8-7.9-6.4-8.7-6.2-20.5 0.5-28.9 6.7-8.4 18.2-11.3 28-7 4-3.2 8.9-2.2 12.9 1.1 4.5 3.8 5.8 6.5 9.3 12.7-3.4 0.5-4.6 4.8-8 5.3z"/>
	<path id="Layer" class="s1" d="m413.6 528.9l0.1-0.8 33.1 6.8-0.1 0.8z"/>
	<path id="Layer" class="s1" d="m433.4 532.6l2.2-52.6h0.9l-2.2 52.7z"/>
	<path id="Layer" class="s1" d="m406.1 513.7q0-0.5 0-1 0.1-0.4 0.2-0.9 0-0.5 0.1-1 1.3 0.5 2.5 1.3 1.1 0.8 2 1.8 0.8 1.1 1.4 2.3 0.6 1.3 0.8 2.6l8.1 46.9c-4.3-8.9-14.3-29.7-14.3-30.4 0-0.7-0.5-13.9-0.8-20.6q0-0.5 0-1z"/>
	<path id="Layer" class="s6" d="m455.7 613c-0.7-1-1.2-2-1.5-3.2-0.2-1.1-0.2-2.3 0-3.4 0.3-1.2 0.8-2.2 1.5-3.2 0.7-0.9 1.6-1.7 2.6-2.2l-1.6-18.2 10.8-3.6 1.9 25.6c0.8 1.8 0.9 3.9 0.3 5.7-0.6 1.9-1.8 3.5-3.5 4.5-1.7 1-3.7 1.3-5.6 1-2-0.4-3.7-1.5-4.9-3z"/>
	<path id="Layer" class="s4" d="m448.7 503.4q-0.2-2.1 0.3-4.1 0.5-2 1.7-3.8 1.1-1.7 2.8-3 1.6-1.2 3.6-1.9 0.8-0.3 1.7-0.4 0.9-0.2 1.8-0.2 0.9 0 1.8 0.2 0.9 0.1 1.8 0.4 1.8 0.7 3.4 1.8 1.6 1.2 2.7 2.8 1.2 1.6 1.7 3.4 0.6 1.9 0.6 3.9l0.8 92.2-19.1 0.7z"/>
</svg>