<svg version="1.2" xmlns="http://www.w3.org/2000/svg" viewBox="0 0 528 792" width="528" height="792">
	<title>tree-svg (1)-svg</title>
	<style>
		.s0 { fill: #ffffff } 
		.s1 { fill: #3f3d56 } 
		.s2 { fill: #ff6884 } 
		.s3 { fill: #89535a } 
		.s4 { fill: #a0616a } 
		.s5 { fill: #2f2e41 } 
		.s6 { fill: #e6e6e6 } 
	</style>
	<g id="Layer">
		<path id="Layer 1" fill-rule="evenodd" class="s0" d="m-27-17h587v839h-587zm135.8 266.7c-1.4 0-2.6 1-2.6 2.1v33.2c0 1.1 1.2 2 2.6 2h14.9c1.5 0 2.7-0.9 2.7-2v-33.2c0-1.1-1.2-2.1-2.7-2.1zm49.7 38.9c1.8 0 3.3-1.2 3.3-2.6v-105.2c0-1.4-1.5-2.5-3.3-2.5h-14.9c-1.8 0-3.3 1.1-3.3 2.5v105.2c0 1.4 1.5 2.6 3.3 2.6h14.9q0 0 0 0zm33.6 0c1.9 0 3.3-1.2 3.3-2.6v-64.2c0-1.4-1.4-2.5-3.3-2.5h-14.9c-1.8 0-3.3 1.1-3.3 2.5v64.2c0 1.4 1.5 2.6 3.3 2.6h14.9q0 0 0 0zm139.8 401.5v-56.2c0-1.2-1.3-2.2-2.9-2.2h-13.1c-1.6 0-2.9 1-2.9 2.2v56.2c0 1.3 1.3 2.3 2.9 2.3h13.1c1.6 0 2.9-1 2.9-2.3zm-46.6-32.1c-1.2 0-2.3 0.8-2.3 1.8v29c0 1 1.1 1.8 2.3 1.8h13.1c1.3 0 2.3-0.8 2.3-1.8v-29c0-1-1-1.8-2.3-1.8zm76.6 32.1v-92.1c0-1.2-1.3-2.2-2.8-2.2h-13.1c-1.6 0-2.9 1-2.9 2.2v92.1c0 1.3 1.3 2.3 2.9 2.3h13.1c1.5 0 2.8-1 2.8-2.3zm-183.8-121.6c2 0 3.6-1.6 3.6-3.7 0-2-1.6-3.6-3.6-3.6h-80.4c-2 0-3.7 1.6-3.7 3.6 0 2.1 1.7 3.7 3.7 3.7h80.4q0 0 0 0z"/>
		<path id="Layer" class="s1" d="m52 287.6h204.3c0.7 0 1.2 0.5 1.2 1.2 0 0.6-0.5 1.1-1.2 1.1h-204.3c-0.6 0-1.2-0.5-1.2-1.1 0-0.7 0.6-1.2 1.2-1.2z"/>
		<path id="Layer" class="s1" d="m48.8 588h141.6c0.5 0 0.9 0.5 0.9 1.2 0 0.6-0.4 1.2-0.9 1.2h-141.6c-0.4 0-0.8-0.6-0.8-1.2 0-0.7 0.4-1.2 0.8-1.2z"/>
	</g>
	<path id="Layer" class="s2" d="m375.6 349.4c-35.9 0-65-29.1-65-65 0-35.9 29.1-65 65-65 36 0 65 29.1 65 65 0 35.9-29 65-65 65z"/>
	<path id="Layer" fill-rule="evenodd" class="s1" d="m95.7 670.1h187.8v2.4h-187.8c-0.4 0-0.7-0.5-0.7-1.2 0-0.7 0.3-1.2 0.7-1.2zm217.3 0v2.4h-11.8v-2.4zm80.9 0c0.4 0 0.7 0.5 0.7 1.2 0 0.7-0.3 1.2-0.7 1.2h-32v-2.4zm-62.1 2.4v-2.4h11.3v2.4z"/>
	<g id="Layer">
		<path id="Layer copy" fill-rule="evenodd" class="s1" d="m122.1 446.8l56.7 30.5 71.2-103.9 30.8-12.1-0.3 4.4c-22.6 11.6-42.1 28.7-56.6 49.8l-44.6 64.9-8.7-4.7c-29.3-15.7-65.1-12.6-91.2 7.9l-18.4 14.5v-3.2z"/>
		<path id="Layer" fill-rule="evenodd" class="s1" d="m281.7 412.8c26-67.5 91.4-138.2 169.8-209.8l1.9 1.6c-73.5 70.3-136.4 141-172 212.5l-4.4-7.3v-4.8z"/>
		<path id="Layer" class="s1" d="m455 217l-2.4 0.2-4-8.7-9-1.8-0.3-2.5 14.7-2 1 14.8z"/>
	</g>
	<path id="Layer" class="s3" d="m240.7 270l8.7-33.7 34.2-1.7 10.2 46.5-53.1-11.1z"/>
	<path id="Layer" class="s4" d="m263.2 255.1c-22.8 0-41.3-18.4-41.3-41.2 0-22.8 18.5-41.2 41.3-41.2 22.7 0 41.2 18.4 41.2 41.2 0 22.8-18.5 41.2-41.2 41.2z"/>
	<path id="Layer" class="s5" d="m285.9 222.6c0 0-15.7-31-34-29.2-18.4 1.8-28 4-28 4 0 0-5.5-24.2 20.2-33.5 0 0-32.6-32.1 6.2-47.9 38.8-15.7 60.5 4.4 60.5 4.4 0 0 28.7 28.7-7.4 50.1 0 0 26.8 36.1-5.7 65.9 0 0 7.3-24.1-0.3-19.6-7.6 4.4-11.5 5.8-11.5 5.8q0 0 0 0z"/>
	<path id="Layer" fill-rule="evenodd" class="s5" d="m217.7 440.4l105.8 16.5 37.3 88.4-5.6 50.5h-9.2c-1.6 0-2.9 1-2.9 2.2v72.4h-11.2v-36.5c0-1.2-1.3-2.2-2.9-2.2h-13.1c-1.6 0-2.9 1-2.9 2.2v36.5h-11.8v-9.4c0-0.9-1.1-1.8-2.3-1.8h-13.1c-0.8 0-1.5 0.4-1.9 0.8l-17.9-58.5-31.2 69.6h-66.5l4.3-140.5 39.6-84.9z"/>
	<path id="Layer" class="s6" d="m286.6 265.6l38.6 19.5 1.7 68.5-3.4 102.3-111.5-9.1c0 0 2.6-29.5-3.4-52-6.1-22.6-3.5-52.9-3.5-52.9l-11.3-50.3 48.4-26h44.4q0 0 0 0z"/>
	<path id="Layer" class="s6" d="m220.3 344.2c0 0 2.6 76.3-26.5 101.5-29 25.2-31.6-27.8-31.6-27.8 0 0 3.5-89.3 7.8-106.7 4.3-17.3 31.2-18.2 31.2-18.2 0 0 19.1 51.2 19.1 51.2z"/>
	<path id="Layer" fill-rule="evenodd" class="s0" d="m401.9 735.4h-158.4c-5.3 0-9.7-4.4-9.7-9.7v-163.8c0-5.4 4.4-9.7 9.7-9.7h158.4c5.4 0 9.8 4.3 9.8 9.7v163.8c0 5.3-4.4 9.7-9.8 9.7zm-70-45.3v-56.2c0-1.2-1.3-2.2-2.9-2.2h-13.1c-1.6 0-2.9 1-2.9 2.2v56.2c0 1.3 1.3 2.3 2.9 2.3h13.1c1.6 0 2.9-1 2.9-2.3zm-46.1-30.9c-1.3 0-2.3 0.9-2.3 1.8v29.1c0 1 1 1.8 2.3 1.8h13.1c1.2 0 2.3-0.8 2.3-1.8v-29.1c0-0.9-1.1-1.8-2.3-1.8zm76.1 30.9v-92.1c0-1.2-1.3-2.2-2.9-2.2h-13c-1.6 0-2.9 1-2.9 2.2v92.1c0 1.3 1.3 2.3 2.9 2.3h13c1.6 0 2.9-1 2.9-2.3z"/>
	<path id="Layer" fill-rule="evenodd" class="s1" d="m401.9 736.4h-158.4c-5.9 0-10.7-4.8-10.7-10.7v-163.8c0-5.9 4.8-10.7 10.7-10.7h158.4c5.9 0 10.8 4.8 10.8 10.7v163.8c0 5.9-4.9 10.7-10.8 10.7zm-158.4-183.2c-4.8 0-8.7 3.9-8.7 8.7v163.8c0 4.8 3.9 8.7 8.7 8.7h158.4c4.8 0 8.8-3.9 8.8-8.7v-163.8c0-4.8-4-8.7-8.8-8.7z"/>
	<g id="Layer">
	</g>
	<g id="Layer">
	</g>
	<path id="Layer" class="s4" d="m342.3 555.4c-0.5-4.9 0.2-9.8 1.9-14.3l-2.6-30.8c-6.6-28.7-16.8-79.3-8.9-91.6 4.7-7.4 12-4.4 18.9 1.5 11.5 9.8 17.5 24.7 16.7 39.8l-3.8 65.2-0.2 0.1 1.5 13.7c2.6 4.1 4.1 8.8 4.5 13.7 1.2 12.1-4.1 22.6-11.9 23.3-7.7 0.7-14.9-8.5-16.1-20.6z"/>
	<path id="Layer" class="s6" d="m315.7 287.8c0 0 22.5-8.7 32.9 17.3 10.4 26.1 21.7 154.4 21.7 154.4l-52.9-9.6-1.7-162.1q0 0 0 0z"/>
	<g id="Layer">
		<path id="Layer" class="s6" d="m86.1 274.1h-30.4c-2 0-3.6-1.7-3.6-3.7 0-2 1.6-3.7 3.6-3.7h30.4c2 0 3.7 1.7 3.7 3.7 0 2-1.7 3.7-3.7 3.7z"/>
		<path id="Layer" class="s6" d="m86.1 222h-30.4c-2 0-3.6-1.7-3.6-3.7 0-2 1.6-3.7 3.6-3.7h30.4c2 0 3.7 1.7 3.7 3.7 0 2-1.7 3.7-3.7 3.7z"/>
		<path id="Layer" class="s6" d="m86.1 185.4h-30.4c-2 0-3.6-1.6-3.6-3.6 0-2.1 1.6-3.7 3.6-3.7h30.4c2 0 3.7 1.6 3.7 3.7 0 2-1.7 3.6-3.7 3.6z"/>
	</g>
	<path id="Layer" class="s1" d="m317.8 595.6h141.4c0.4 0 0.8 0.5 0.8 1.2 0 0.6-0.4 1.1-0.8 1.1h-141.4c-0.4 0-0.8-0.5-0.8-1.1 0-0.7 0.4-1.2 0.8-1.2z"/>
	<path id="Layer" class="s1" d="m255 692.6h169c0.6 0 1 0.5 1 1.2 0 0.6-0.4 1.1-1 1.1h-169c-0.6 0-1-0.5-1-1.1 0-0.7 0.4-1.2 1-1.2z"/>
	<path id="Layer" class="s4" d="m167.5 281.7c7.7-0.7 14.9 8.5 16.1 20.7 0.5 4.8-0.2 9.7-1.9 14.3l2.6 30.7c6.6 28.8 16.8 79.3 8.9 91.6-4.7 7.4-12 4.4-18.9-1.4-11.5-9.9-17.5-24.7-16.7-39.9l3.8-65.2h0.2l-1.5-13.8c-2.6-4.1-4.1-8.8-4.5-13.6-1.2-12.2 4.1-22.6 11.9-23.4z"/>
</svg>