<svg version="1.2" xmlns="http://www.w3.org/2000/svg" viewBox="0 0 370 792" width="370" height="792">
	<title>tree-svg (1)-svg</title>
	<style>
		.s0 { fill: #ffffff } 
		.s1 { fill: #3f3d56 } 
		.s2 { fill: #f2f2f2 } 
		.s3 { fill: #cccccc } 
		.s4 { fill: #89535a } 
		.s5 { fill: #a0616a } 
		.s6 { fill: #2f2e41 } 
		.s7 { fill: #e6e6e6 } 
	</style>
	<g id="Layer">
		<path id="Layer 2" fill-rule="evenodd" class="s0" d="m-49-43h467v134h8v609h-13v106h-447v-107h33.9v-604h-48.9zm147.5 327.6c-1.1 0-1.9 0.7-1.9 1.5v24.1c0 0.8 0.8 1.5 1.9 1.5h10.8c1.1 0 1.9-0.7 1.9-1.5v-24.1c0-0.8-0.8-1.5-1.9-1.5zm36.1 28.2c1.3 0 2.4-0.8 2.4-1.8v-76.4c0-1-1.1-1.9-2.4-1.9h-10.8c-1.4 0-2.4 0.9-2.4 1.9v76.4c0 1 1 1.8 2.4 1.8 0 0 10.8 0 10.8 0zm24.4 0c1.3 0 2.4-0.8 2.4-1.8v-46.6c0-1.1-1.1-1.9-2.4-1.9h-10.8c-1.4 0-2.4 0.8-2.4 1.9v46.6c0 1 1 1.8 2.4 1.8 0 0 10.8 0 10.8 0zm101.4 291.5v-40.8c0-0.9-0.9-1.6-2.1-1.6h-9.5c-1.1 0-2 0.7-2 1.6v40.8c0 0.9 0.9 1.6 2 1.6h9.5c1.2 0 2.1-0.7 2.1-1.6zm-33.8-23.3c-0.9 0-1.6 0.6-1.6 1.3v21.1c0 0.7 0.7 1.3 1.6 1.3h9.5c1 0 1.7-0.6 1.7-1.3v-21.1c0-0.7-0.7-1.3-1.7-1.3zm55.6 23.3v-66.9c0-0.8-0.9-1.6-2-1.6h-9.5c-1.2 0-2.1 0.8-2.1 1.6v66.9c0 0.9 0.9 1.6 2.1 1.6h9.5c1.1 0 2-0.7 2-1.6zm-133.4-88.3c1.5 0 2.6-1.2 2.6-2.6 0-1.5-1.1-2.7-2.6-2.7h-58.3c-1.5 0-2.7 1.2-2.7 2.7 0 1.4 1.2 2.6 2.7 2.6 0 0 58.3 0 58.3 0zm74.8 237c0 5.4 4.3 9.7 9.7 9.7 5.4 0 9.7-4.3 9.7-9.7 0-5.3-4.3-9.7-9.7-9.7-5.4 0-9.7 4.4-9.7 9.7zm-135.3-102.6c0 5.3 4.4 9.7 9.7 9.7 5.4 0 9.7-4.4 9.7-9.7 0-5.4-4.3-9.7-9.7-9.7-5.3 0-9.7 4.3-9.7 9.7zm227.5-522.4c-3.6 0-6.8 2.1-8.1 5.4-1.4 3.3-0.6 7.1 1.9 9.6 2.5 2.5 6.3 3.3 9.5 1.9 3.3-1.4 5.5-4.6 5.5-8.1 0-1.2-0.3-2.3-0.7-3.4-0.4-1-1.1-2-1.9-2.8-0.8-0.8-1.8-1.5-2.9-1.9-1-0.5-2.2-0.7-3.3-0.7zm-0.2 2.8c1.1 0 2.1 0.6 2.5 1.6 0.4 1 0.2 2.1-0.6 2.9-0.7 0.7-1.9 1-2.9 0.6-1-0.4-1.6-1.4-1.6-2.5q0-0.5 0.2-1 0.2-0.5 0.6-0.8 0.3-0.4 0.8-0.6 0.5-0.2 1-0.2zm0 12.7q-0.7 0-1.5-0.2-0.8-0.2-1.4-0.6-0.7-0.3-1.3-0.9-0.6-0.5-1-1.1c0-1.8 3.5-2.8 5.2-2.8 1.8 0 5.3 1 5.3 2.8q-0.4 0.6-1 1.1-0.6 0.6-1.3 0.9-0.7 0.4-1.4 0.6-0.8 0.2-1.6 0.2zm-109.6-91.6c0-1.5-0.6-2.9-1.6-4-1.1-1-2.5-1.6-4-1.6-1.5 0-3 0.6-4 1.6-1.1 1.1-1.7 2.5-1.7 4 0 3.2 5.7 10 5.7 10 0 0 5.6-6.8 5.6-10zm-3.6 14.1c0-1.2-1-2.2-2.2-2.2-1.3 0-2.3 1-2.3 2.2 0 1.3 1 2.2 2.3 2.2 1.2 0 2.2-0.9 2.2-2.2zm79.9 13.2c0-6.2-5-11.2-11.1-11.2-6.2 0-11.2 5-11.2 11.2 0 6.1 5 11.1 11.2 11.1 6.1 0 11.1-5 11.1-11.1z"/>
		<path id="Layer" class="s1" d="m57.3 312.1h148.3c0.4 0 0.8 0.4 0.8 0.8 0 0.5-0.4 0.9-0.8 0.9h-148.3c-0.5 0-0.9-0.4-0.9-0.9 0-0.4 0.4-0.8 0.9-0.8z"/>
		<path id="Layer" class="s1" d="m54.9 531.2h102.8c0.4 0 0.6 0.3 0.6 0.8 0 0.5-0.2 0.9-0.6 0.9h-102.8c-0.3 0-0.6-0.4-0.6-0.9 0-0.5 0.3-0.8 0.6-0.8z"/>
		<path id="Layer" fill-rule="evenodd" class="s2" d="m182 57.3l9.2-16h18.3l9.2 16-9.2 15.9h-18.3zm24-5.4c0-1.5-0.6-2.9-1.7-4-1-1-2.5-1.6-4-1.6-1.5 0-2.9 0.6-4 1.6-1 1.1-1.6 2.5-1.6 4 0 3.2 5.6 10 5.6 10 0 0 5.7-6.8 5.7-10zm-3.6 14.1c0-1.2-1-2.2-2.3-2.2-1.2 0-2.2 1-2.2 2.2 0 1.3 1 2.3 2.2 2.3 1.3 0 2.3-1 2.3-2.3z"/>
		<path id="Layer" fill-rule="evenodd" class="s2" d="m297.3 136.9l9.2-15.9h18.3l9.2 15.9-9.2 16h-18.3zm18.3-8.8c-3.5 0-6.7 2.1-8.1 5.4-1.4 3.3-0.6 7.1 1.9 9.6 2.5 2.5 6.3 3.2 9.6 1.9 3.3-1.4 5.4-4.6 5.4-8.1 0-1.2-0.2-2.3-0.7-3.4-0.4-1.1-1-2-1.9-2.9-0.8-0.8-1.7-1.4-2.8-1.9-1.1-0.4-2.2-0.6-3.4-0.6zm0 2.6c1.1 0 2.1 0.6 2.5 1.6 0.4 1 0.1 2.1-0.6 2.9-0.8 0.8-1.9 1-2.9 0.6-1-0.4-1.6-1.4-1.6-2.5q0-0.5 0.2-1 0.2-0.5 0.6-0.8 0.3-0.4 0.8-0.6 0.5-0.2 1-0.2zm0 12.7q-0.8 0-1.5-0.2-0.8-0.2-1.5-0.6-0.6-0.3-1.2-0.9-0.6-0.5-1-1.1c0-1.8 3.5-2.7 5.2-2.7 1.8 0 5.3 0.9 5.3 2.7q-0.4 0.6-1 1.1-0.6 0.6-1.3 0.9-0.7 0.4-1.4 0.6-0.8 0.2-1.6 0.2z"/>
		<path id="Layer" fill-rule="evenodd" class="s2" d="m246 79.7l12.5-21.7h25.1l12.6 21.7-12.6 21.8h-25.1zm36.4-0.6c0-6.2-5-11.2-11.2-11.2-6.2 0-11.2 5-11.2 11.2 0 6.2 5 11.1 11.2 11.1 6.2 0 11.2-4.9 11.2-11.1z"/>
		<path id="Layer" fill-rule="evenodd" class="s3" d="m286.8 108.8h-31.5q-0.2 0-0.4-0.1-0.3 0-0.5-0.2-0.2-0.1-0.3-0.3-0.2-0.1-0.3-0.3l-15.8-27.3q-0.1-0.2-0.1-0.4-0.1-0.2-0.1-0.5 0-0.2 0.1-0.5 0-0.2 0.1-0.4l15.8-27.2q0.1-0.2 0.3-0.4 0.1-0.2 0.3-0.3 0.2-0.1 0.5-0.2 0.2 0 0.4 0h31.5q0.2 0 0.5 0 0.2 0.1 0.4 0.2 0.2 0.1 0.4 0.3 0.2 0.2 0.3 0.4l15.7 27.2q0.1 0.2 0.2 0.4 0 0.3 0 0.5 0 0.3 0 0.5-0.1 0.2-0.2 0.4l-15.7 27.3q-0.1 0.2-0.3 0.3-0.2 0.2-0.4 0.3-0.2 0.2-0.4 0.2-0.3 0.1-0.5 0.1zm-31.5-57.4q-0.1 0-0.2 0-0.2 0.1-0.3 0.1-0.1 0.1-0.2 0.2-0.1 0.1-0.2 0.2l-15.7 27.3q-0.1 0.1-0.1 0.2-0.1 0.2-0.1 0.3 0 0.2 0.1 0.3 0 0.1 0.1 0.3l15.7 27.2q0.1 0.1 0.2 0.2 0.1 0.1 0.2 0.2 0.1 0.1 0.3 0.1 0.1 0.1 0.2 0.1h31.5q0.1 0 0.3-0.1 0.1 0 0.2-0.1 0.2-0.1 0.3-0.2 0.1-0.1 0.1-0.2l15.8-27.2q0-0.2 0.1-0.3 0-0.1 0-0.3 0-0.1 0-0.3-0.1-0.1-0.1-0.2l-15.8-27.3q0-0.1-0.1-0.2-0.1-0.1-0.3-0.2-0.1 0-0.2-0.1-0.2 0-0.3 0z"/>
		<path id="Layer" fill-rule="evenodd" class="s3" d="m327.2 158.5h-23.1q-0.2 0-0.3 0-0.2-0.1-0.3-0.2-0.2-0.1-0.3-0.2-0.1-0.1-0.2-0.3l-11.5-19.9q-0.1-0.2-0.2-0.3 0-0.2 0-0.4 0-0.2 0-0.3 0.1-0.2 0.2-0.3l11.5-20q0.1-0.1 0.2-0.3 0.1-0.1 0.3-0.2 0.1-0.1 0.3-0.1 0.1-0.1 0.3-0.1h23.1q0.1 0 0.3 0.1 0.2 0 0.3 0.1 0.2 0.1 0.3 0.2 0.1 0.2 0.2 0.3l11.5 20q0.1 0.1 0.2 0.3 0 0.1 0 0.3 0 0.2 0 0.4-0.1 0.1-0.2 0.3l-11.5 19.9q-0.1 0.2-0.2 0.3-0.1 0.1-0.3 0.2-0.1 0.1-0.3 0.2-0.2 0-0.3 0zm-23.1-42q-0.1 0-0.2 0-0.1 0-0.2 0.1-0.1 0-0.1 0.1-0.1 0.1-0.2 0.2l-11.5 19.9q0 0.1-0.1 0.2 0 0.1 0 0.2 0 0.1 0 0.2 0.1 0.1 0.1 0.2l11.5 20q0.1 0.1 0.2 0.1 0 0.1 0.1 0.2 0.1 0 0.2 0 0.1 0.1 0.2 0.1h23.1q0.1 0 0.2-0.1 0.1 0 0.2 0 0-0.1 0.1-0.2 0.1 0 0.1-0.1l11.6-20q0-0.1 0-0.2 0.1-0.1 0.1-0.2 0-0.1-0.1-0.2 0-0.1 0-0.2l-11.6-19.9q0-0.1-0.1-0.2-0.1-0.1-0.1-0.1-0.1-0.1-0.2-0.1-0.1 0-0.2 0z"/>
		<path id="Layer" fill-rule="evenodd" class="s3" d="m211.9 78.6h-23.1q-0.1 0-0.3-0.1-0.2 0-0.3-0.1-0.2-0.1-0.3-0.2-0.1-0.2-0.2-0.3l-11.5-20q-0.1-0.1-0.2-0.3 0-0.1 0-0.3 0-0.2 0-0.4 0.1-0.1 0.2-0.3l11.5-19.9q0.1-0.2 0.2-0.3 0.1-0.1 0.3-0.2 0.1-0.1 0.3-0.2 0.2 0 0.3 0h23.1q0.2 0 0.3 0 0.2 0.1 0.3 0.2 0.2 0.1 0.3 0.2 0.1 0.1 0.2 0.3l11.5 19.9q0.1 0.2 0.2 0.3 0 0.2 0 0.4 0 0.2 0 0.3-0.1 0.2-0.2 0.3l-11.5 20q-0.1 0.1-0.2 0.3-0.1 0.1-0.3 0.2-0.1 0.1-0.3 0.1-0.1 0.1-0.3 0.1zm-23.1-42.1q-0.1 0-0.2 0.1-0.1 0-0.2 0 0 0.1-0.1 0.2-0.1 0-0.1 0.1l-11.6 20q0 0.1 0 0.2-0.1 0.1-0.1 0.2 0 0.1 0.1 0.2 0 0.1 0 0.2l11.6 19.9q0 0.1 0.1 0.2 0.1 0.1 0.1 0.1 0.1 0.1 0.2 0.1 0.1 0 0.2 0h23.1q0.1 0 0.2 0 0.1 0 0.2-0.1 0.1 0 0.1-0.1 0.1-0.1 0.2-0.2l11.5-19.9q0-0.1 0.1-0.2 0-0.1 0-0.2 0-0.1 0-0.2-0.1-0.1-0.1-0.2l-11.5-20q-0.1-0.1-0.2-0.1 0-0.1-0.1-0.2-0.1 0-0.2 0-0.1-0.1-0.2-0.1z"/>
		<path id="Layer" fill-rule="evenodd" class="s3" d="m334.6 701.8c2.4-1.2 5.2-0.8 7.2 0.9 2 1.7 2.7 4.5 1.9 7-0.9 2.4-3.1 4.2-5.7 4.4-2.7 0.1-5.1-1.3-6.3-3.6q-0.6-1.2-0.7-2.5-0.1-1.3 0.4-2.5 0.4-1.2 1.2-2.2 0.9-0.9 2-1.5zm5.4 10.7c1.9-1 3.1-3.1 3-5.3-0.2-2.2-1.6-4.1-3.7-4.8-2.1-0.7-4.5-0.1-5.9 1.6-1.5 1.7-1.8 4-0.8 6q0.5 1 1.3 1.7 0.8 0.7 1.9 1.1 1 0.3 2.1 0.3 1.1-0.1 2.1-0.6z"/>
		<path id="Layer copy" fill-rule="evenodd" class="s3" d="m64.9 34.4c1.3-0.7 2.8-0.5 3.9 0.5 1.1 0.9 1.5 2.4 1 3.7-0.4 1.3-1.7 2.3-3.1 2.4-1.4 0.1-2.7-0.7-3.3-2q-0.3-0.6-0.4-1.3 0-0.7 0.2-1.3 0.2-0.7 0.7-1.2 0.4-0.5 1-0.8zm2.9 5.7c1.1-0.5 1.7-1.6 1.6-2.8 0-1.2-0.8-2.2-2-2.6-1.1-0.4-2.4-0.1-3.1 0.9-0.8 0.9-1 2.1-0.5 3.2q0.3 0.5 0.8 0.9 0.4 0.4 1 0.6 0.5 0.2 1.1 0.1 0.6 0 1.1-0.3z"/>
		<path id="Layer" class="s0" d="m269.6 85q-0.1 0-0.3-0.1-0.1 0-0.2-0.1-0.2 0-0.3-0.1-0.1-0.1-0.2-0.2l-3-4.1c-0.2-0.3-0.3-0.6-0.2-0.9 0-0.3 0.2-0.6 0.4-0.8 0.3-0.2 0.6-0.3 1-0.3 0.3 0.1 0.6 0.3 0.8 0.5l2 2.7 5.1-7.7c0.2-0.3 0.5-0.5 0.8-0.5 0.3-0.1 0.6 0 0.9 0.2 0.3 0.1 0.5 0.4 0.5 0.7 0.1 0.4 0 0.7-0.1 1l-6.1 9.1q-0.1 0.1-0.2 0.2-0.1 0.1-0.3 0.2-0.1 0.1-0.2 0.1-0.2 0.1-0.3 0.1 0 0-0.1 0z"/>
		<path id="Layer" class="s3" d="m204.4 132.8c0-1 0.8-1.8 1.8-1.8 1 0 1.8 0.8 1.8 1.8 0 1-0.8 1.8-1.8 1.8-1 0-1.8-0.8-1.8-1.8z"/>
		<path id="Layer copy 9" class="s3" d="m294.4 662.8c0-1 0.8-1.8 1.8-1.8 1 0 1.8 0.8 1.8 1.8 0 1-0.8 1.8-1.8 1.8-1 0-1.8-0.8-1.8-1.8z"/>
		<path id="Layer copy 3" fill-rule="evenodd" class="s3" d="m117.3 132.6c4.1-2.1 9.1-1.5 12.5 1.6 3.5 3 4.8 7.8 3.3 12.1-1.4 4.4-5.4 7.4-10 7.8-4.5 0.3-8.9-2.2-10.9-6.3-0.7-1.4-1.1-2.8-1.2-4.3-0.1-1.5 0.1-3 0.6-4.4 0.5-1.4 1.2-2.7 2.2-3.8 1-1.2 2.2-2.1 3.5-2.7zm9.3 18.7c3.5-1.7 5.6-5.4 5.4-9.2-0.3-3.9-2.9-7.2-6.6-8.5-3.7-1.2-7.7-0.1-10.3 2.8-2.5 2.9-3.1 7.1-1.3 10.6 0.5 1.1 1.3 2.1 2.3 3 0.9 0.8 2 1.4 3.2 1.8 1.2 0.4 2.5 0.6 3.7 0.5 1.3-0.1 2.5-0.4 3.6-1z"/>
		<path id="Layer copy 4" class="s3" d="m60 97.6c0-3.8 3.1-6.9 7-6.9 3.9 0 7 3.1 7 6.9 0 3.9-3.1 7-7 7-3.9 0-7-3.1-7-7z"/>
		<path id="Layer copy 8" class="s3" d="m114.4 80.9c0-2 1.7-3.7 3.7-3.7 2 0 3.7 1.7 3.7 3.7 0 2-1.7 3.7-3.7 3.7-2 0-3.7-1.7-3.7-3.7z"/>
	</g>
	<path id="Layer" fill-rule="evenodd" class="s1" d="m88.9 589.8h136.4v1.7h-136.4c-0.2 0-0.4-0.4-0.4-0.9 0-0.4 0.2-0.8 0.4-0.8zm157.8 0v1.7h-8.6v-1.7zm58.8 0c0.3 0 0.5 0.4 0.5 0.8 0 0.5-0.2 0.9-0.5 0.9h-23.2v-1.7zm-45.2 1.7v-1.7h8.2v1.7z"/>
	<g id="Layer">
	</g>
	<path id="Layer" class="s4" d="m194.2 299.3l6.4-24.4 24.8-1.2 7.4 33.7-38.6-8.1z"/>
	<path id="Layer" class="s5" d="m210.5 288.5c-16.5 0-29.9-13.3-29.9-29.9 0-16.5 13.4-29.9 29.9-29.9 16.6 0 29.9 13.4 29.9 29.9 0 16.6-13.3 29.9-29.9 29.9z"/>
	<path id="Layer" class="s6" d="m227 265c0 0-11.3-22.6-24.7-21.3-13.3 1.3-20.3 2.9-20.3 2.9 0 0-3.9-17.5 14.7-24.3 0 0-23.7-23.3 4.5-34.7 28.2-11.5 43.9 3.1 43.9 3.1 0 0 20.9 20.8-5.4 36.4 0 0 19.5 26.2-4.1 47.9 0 0 5.3-17.5-0.2-14.3-5.5 3.2-8.4 4.3-8.4 4.3q0 0 0 0z"/>
	<path id="Layer" fill-rule="evenodd" class="s6" d="m177.5 423l76.8 12 27.1 64.2-4.1 36.6h-6.6c-1.2 0-2.1 0.8-2.1 1.6v52.6h-8.2v-26.5c0-0.9-0.9-1.6-2.1-1.6h-9.5c-1.1 0-2.1 0.7-2.1 1.6v26.5h-8.6v-6.8c0-0.7-0.7-1.3-1.7-1.3h-9.4c-0.6 0-1.1 0.2-1.4 0.6l-13-42.5-22.7 50.5h-48.3l3.2-102 28.7-61.6z"/>
	<path id="Layer" class="s7" d="m227.5 296.1l28.1 14.2 1.2 49.7-2.5 74.3-80.9-6.6c0 0 1.9-21.4-2.5-37.8-4.4-16.4-2.5-38.4-2.5-38.4l-8.2-36.5 35.1-18.9h32.2q0 0 0 0z"/>
	<path id="Layer" class="s7" d="m179.4 353.2c0 0 1.9 55.4-19.2 73.7-21.1 18.2-23-20.2-23-20.2 0 0 2.5-64.9 5.7-77.4 3.1-12.6 22.6-13.3 22.6-13.3 0 0 13.9 37.2 13.9 37.2z"/>
	<path id="Layer" fill-rule="evenodd" class="s0" d="m189.2 513.9c0-5.4 4.4-9.7 9.7-9.7h109.7c5.4 0 9.7 4.3 9.7 9.7v113.5c0 5.4-4.3 9.8-9.7 9.8h-109.7c-5.3 0-9.7-4.4-9.7-9.8zm71.2 90.5v-40.8c0-0.9-0.9-1.7-2.1-1.7h-9.5c-1.1 0-2.1 0.8-2.1 1.7v40.8c0 0.8 1 1.6 2.1 1.6h9.5c1.2 0 2.1-0.8 2.1-1.6zm-33.4-22.5c-1 0-1.7 0.6-1.7 1.3v21.1c0 0.7 0.7 1.3 1.7 1.3h9.4c1 0 1.7-0.6 1.7-1.3v-21.1c0-0.7-0.7-1.3-1.7-1.3zm55.3 22.5v-66.9c0-0.9-0.9-1.6-2.1-1.6h-9.4c-1.2 0-2.1 0.7-2.1 1.6v66.9c0 0.8 0.9 1.6 2.1 1.6h9.4c1.2 0 2.1-0.8 2.1-1.6z"/>
	<path id="Layer" fill-rule="evenodd" class="s1" d="m188.5 514.2c0-6 4.8-10.8 10.7-10.8h109.1c5.9 0 10.7 4.8 10.7 10.8v113c0 5.9-4.8 10.7-10.7 10.7h-109.1c-5.9 0-10.7-4.8-10.7-10.7zm1.4 113.5c0 4.8 3.9 8.7 8.8 8.7h110.2c4.8 0 8.7-3.9 8.7-8.7v-114.1c0-4.8-3.9-8.7-8.7-8.7h-110.2c-4.9 0-8.8 3.9-8.8 8.7z"/>
	<g id="Layer">
	</g>
	<g id="Layer">
	</g>
	<path id="Layer" class="s5" d="m268 506.5c-0.4-3.5 0.1-7.1 1.4-10.4l-1.9-22.3c-4.8-20.9-12.2-57.6-6.5-66.5 3.4-5.4 8.7-3.2 13.7 1 8.4 7.2 12.8 18 12.1 29l-2.7 47.3h-0.2l1.1 10c1.9 3 3 6.4 3.3 9.9 0.9 8.8-3 16.4-8.6 17-5.6 0.5-10.9-6.2-11.7-15z"/>
	<path id="Layer" class="s7" d="m248.6 312.3c0 0 16.4-6.3 24 12.5 7.5 18.9 15.7 112.1 15.7 112.1l-38.4-6.9-1.3-117.7q0 0 0 0z"/>
	<g id="Layer">
		<path id="Layer" class="s7" d="m82 302.3h-22c-1.5 0-2.7-1.2-2.7-2.7 0-1.4 1.2-2.6 2.7-2.6h22c1.5 0 2.7 1.2 2.7 2.6 0 1.5-1.2 2.7-2.7 2.7z"/>
		<path id="Layer" class="s7" d="m82 264.5h-22c-1.5 0-2.7-1.2-2.7-2.7 0-1.4 1.2-2.6 2.7-2.6h22c1.5 0 2.7 1.2 2.7 2.6 0 1.5-1.2 2.7-2.7 2.7z"/>
		<path id="Layer" class="s7" d="m82 238h-22c-1.5 0-2.7-1.2-2.7-2.7 0-1.5 1.2-2.7 2.7-2.7h22c1.5 0 2.7 1.2 2.7 2.7 0 1.5-1.2 2.7-2.7 2.7z"/>
	</g>
	<path id="Layer" class="s1" d="m204.6 606.1h122.7c0.4 0 0.7 0.4 0.7 0.8 0 0.5-0.3 0.9-0.7 0.9h-122.7c-0.4 0-0.7-0.4-0.7-0.9 0-0.4 0.3-0.8 0.7-0.8z"/>
	<path id="Layer" class="s5" d="m141.1 307.9c5.6-0.6 10.8 6.1 11.6 14.9 0.4 3.6 0 7.1-1.3 10.4l1.9 22.3c4.8 20.9 12.1 57.6 6.5 66.5-3.5 5.4-8.8 3.2-13.8-1-8.4-7.2-12.7-18-12.1-29l2.7-47.3h0.2l-1.1-10c-1.8-3-3-6.4-3.3-9.9-0.8-8.8 3.1-16.4 8.7-16.9z"/>
	<path id="Layer" fill-rule="evenodd" class="s1" d="m188.4 704.7l-46 25.8-41.2-70.9q1-0.4 1.9-0.9l40 69 45.7-25.7 38.7 43.2q-0.8 0.6-1.5 1.4zm-136.7-16c-0.2 0.2-0.5 0.3-0.7 0.2-0.3 0-0.6-0.1-0.8-0.3-0.1-0.3-0.2-0.5-0.2-0.8 0-0.3 0.2-0.6 0.4-0.7l39-32.2q0.5 1 1.2 1.8z"/>
	<path id="ffdbdf53-78c2-412f-9ede-372406e5d245" class="s3" d="m188.2 693c5.4 0 9.7 4.4 9.7 9.7 0 5.4-4.3 9.7-9.7 9.7-5.4 0-9.7-4.3-9.7-9.7 0-5.3 4.3-9.7 9.7-9.7z"/>
	<path id="b7cff929-f00d-4f86-944c-e500b6ceb6ad" class="s7" d="m143.1 718.3c5.4 0 9.7 4.4 9.7 9.8 0 5.3-4.3 9.7-9.7 9.7-5.4 0-9.7-4.4-9.7-9.7 0-5.4 4.3-9.8 9.7-9.8z"/>
</svg>